<svg width="180" height="180" viewBox="0 0 180 180" xmlns="http://www.w3.org/2000/svg">
  <rect x="0" y="0" width="180" height="180" rx="28" fill="#2563eb"/>
  
  <g transform="translate(40, 50)">
    <rect x="0" y="0" width="100" height="60" rx="8" fill="#ffffff" opacity="0.2"/>
    <rect x="10" y="8" width="15" height="35" rx="4" fill="#ffffff"/>
    <rect x="30" y="15" width="15" height="28" rx="4" fill="#ffffff"/>
    <rect x="50" y="12" width="15" height="31" rx="4" fill="#ffffff"/>
    <rect x="70" y="20" width="15" height="23" rx="4" fill="#ffffff"/>
    <path d="M10 50 L90 50" stroke="#ffffff" stroke-width="3" opacity="0.6"/>
    <circle cx="20" cy="50" r="4" fill="#ffffff"/>
    <circle cx="40" cy="50" r="4" fill="#ffffff"/>
    <circle cx="60" cy="50" r="4" fill="#ffffff"/>
    <circle cx="80" cy="50" r="4" fill="#ffffff"/>
    <circle cx="75" cy="15" r="8" fill="#10b981"/>
    <circle cx="75" cy="15" r="5" fill="#ffffff"/>
  </g>
  
  <text x="90" y="135" font-family="Arial, sans-serif" font-size="16" font-weight="bold" fill="#ffffff" text-anchor="middle">CONTROL</text>
  <text x="90" y="155" font-family="Arial, sans-serif" font-size="16" font-weight="bold" fill="#ffffff" text-anchor="middle">TOTAL</text>
</svg>